0 FILE tower.ldr
0 Name: Castle Tower
0 Author: Bricky
1 7 0 0 0 1 0 0 0 1 0 0 0 1 3003.dat
0 STEP
1 7 0 -24 0 1 0 0 0 1 0 0 0 1 3003.dat
0 STEP
1 7 0 -48 0 1 0 0 0 1 0 0 0 1 3003.dat
0 STEP
1 7 0 -72 0 1 0 0 0 1 0 0 0 1 3003.dat
0 STEP
1 7 0 -96 0 1 0 0 0 1 0 0 0 1 3003.dat
0 STEP
1 7 0 -120 0 1 0 0 0 1 0 0 0 1 3003.dat
0 STEP
1 7 0 -144 0 1 0 0 0 1 0 0 0 1 3005.dat
1 7 20 -144 0 1 0 0 0 1 0 0 0 1 3005.dat
1 7 0 -144 20 1 0 0 0 1 0 0 0 1 3005.dat
1 7 20 -144 20 1 0 0 0 1 0 0 0 1 3005.dat
0 STEP
