0 FILE cottage.ldr
0 Name: Cozy Cottage
0 Author: Bricky
1 19 0 0 0 1 0 0 0 1 0 0 0 1 3005.dat
1 19 20 0 0 1 0 0 0 1 0 0 0 1 3005.dat
1 19 40 0 0 1 0 0 0 1 0 0 0 1 3005.dat
1 19 0 0 20 1 0 0 0 1 0 0 0 1 3005.dat
1 19 40 0 20 1 0 0 0 1 0 0 0 1 3005.dat
1 19 0 0 40 1 0 0 0 1 0 0 0 1 3005.dat
1 19 20 0 40 1 0 0 0 1 0 0 0 1 3005.dat
1 19 40 0 40 1 0 0 0 1 0 0 0 1 3005.dat
0 STEP
1 19 0 -24 0 1 0 0 0 1 0 0 0 1 3005.dat
1 19 20 -24 0 1 0 0 0 1 0 0 0 1 3005.dat
1 19 40 -24 0 1 0 0 0 1 0 0 0 1 3005.dat
1 19 0 -24 20 1 0 0 0 1 0 0 0 1 3005.dat
1 19 40 -24 20 1 0 0 0 1 0 0 0 1 3005.dat
1 19 0 -24 40 1 0 0 0 1 0 0 0 1 3005.dat
1 19 20 -24 40 1 0 0 0 1 0 0 0 1 3005.dat
1 19 40 -24 40 1 0 0 0 1 0 0 0 1 3005.dat
0 STEP
1 4 0 -48 0 1 0 0 0 1 0 0 0 1 3623.dat
1 4 20 -48 0 1 0 0 0 1 0 0 0 1 3623.dat
1 4 40 -48 0 1 0 0 0 1 0 0 0 1 3623.dat
0 STEP
