0 FILE minideskchair.ldr
0 Name: Mini Desk & Chair
0 Author: Bricky
1 6 0 0 0 1 0 0 0 1 0 0 0 1 3005.dat
1 6 60 0 0 1 0 0 0 1 0 0 0 1 3005.dat
1 6 0 0 20 1 0 0 0 1 0 0 0 1 3005.dat
1 6 60 0 20 1 0 0 0 1 0 0 0 1 3005.dat
0 STEP
1 6 0 -24 0 1 0 0 0 1 0 0 0 1 3022.dat
1 6 40 -24 0 1 0 0 0 1 0 0 0 1 3022.dat
0 STEP
1 6 100 0 0 1 0 0 0 1 0 0 0 1 3005.dat
1 6 120 0 0 1 0 0 0 1 0 0 0 1 3005.dat
1 6 100 0 20 1 0 0 0 1 0 0 0 1 3005.dat
1 6 120 0 20 1 0 0 0 1 0 0 0 1 3005.dat
0 STEP
1 6 100 -24 0 1 0 0 0 1 0 0 0 1 3022.dat
0 STEP
1 6 100 -32 0 1 0 0 0 1 0 0 0 1 3005.dat
1 6 120 -32 0 1 0 0 0 1 0 0 0 1 3005.dat
0 STEP
