0 FILE heart.ldr
0 Name: Pixel Art Heart
0 Author: Bricky
1 4 0 0 0 1 0 0 0 1 0 0 0 1 3024.dat
1 4 20 0 0 1 0 0 0 1 0 0 0 1 3024.dat
1 4 60 0 0 1 0 0 0 1 0 0 0 1 3024.dat
1 4 80 0 0 1 0 0 0 1 0 0 0 1 3024.dat
0 STEP
1 4 0 0 20 1 0 0 0 1 0 0 0 1 3024.dat
1 4 20 0 20 1 0 0 0 1 0 0 0 1 3024.dat
1 4 40 0 20 1 0 0 0 1 0 0 0 1 3024.dat
1 4 60 0 20 1 0 0 0 1 0 0 0 1 3024.dat
1 4 80 0 20 1 0 0 0 1 0 0 0 1 3024.dat
0 STEP
1 4 20 0 40 1 0 0 0 1 0 0 0 1 3024.dat
1 4 40 0 40 1 0 0 0 1 0 0 0 1 3024.dat
1 4 60 0 40 1 0 0 0 1 0 0 0 1 3024.dat
0 STEP
1 4 40 0 60 1 0 0 0 1 0 0 0 1 3024.dat
0 STEP
