0 FILE frame.ldr
0 Name: Picture Frame
0 Author: Bricky
1 19 0 0 0 1 0 0 0 1 0 0 0 1 3024.dat
1 19 20 0 0 1 0 0 0 1 0 0 0 1 3024.dat
1 19 40 0 0 1 0 0 0 1 0 0 0 1 3024.dat
1 19 60 0 0 1 0 0 0 1 0 0 0 1 3024.dat
1 19 0 0 20 1 0 0 0 1 0 0 0 1 3024.dat
1 19 60 0 20 1 0 0 0 1 0 0 0 1 3024.dat
1 19 0 0 40 1 0 0 0 1 0 0 0 1 3024.dat
1 19 60 0 40 1 0 0 0 1 0 0 0 1 3024.dat
1 19 0 0 60 1 0 0 0 1 0 0 0 1 3024.dat
1 19 20 0 60 1 0 0 0 1 0 0 0 1 3024.dat
1 19 40 0 60 1 0 0 0 1 0 0 0 1 3024.dat
1 19 60 0 60 1 0 0 0 1 0 0 0 1 3024.dat
0 STEP
