0 FILE tictactoe.ldr
0 Name: Tic Tac Toe Board
0 Author: Bricky
1 0 20 0 0 1 0 0 0 1 0 0 0 1 3024.dat
1 0 20 0 20 1 0 0 0 1 0 0 0 1 3024.dat
1 0 20 0 40 1 0 0 0 1 0 0 0 1 3024.dat
1 0 20 0 60 1 0 0 0 1 0 0 0 1 3024.dat
1 0 20 0 80 1 0 0 0 1 0 0 0 1 3024.dat
1 0 60 0 0 1 0 0 0 1 0 0 0 1 3024.dat
1 0 60 0 20 1 0 0 0 1 0 0 0 1 3024.dat
1 0 60 0 40 1 0 0 0 1 0 0 0 1 3024.dat
1 0 60 0 60 1 0 0 0 1 0 0 0 1 3024.dat
1 0 60 0 80 1 0 0 0 1 0 0 0 1 3024.dat
0 STEP
1 0 0 0 20 1 0 0 0 1 0 0 0 1 3024.dat
1 0 40 0 20 1 0 0 0 1 0 0 0 1 3024.dat
1 0 80 0 20 1 0 0 0 1 0 0 0 1 3024.dat
1 0 0 0 60 1 0 0 0 1 0 0 0 1 3024.dat
1 0 40 0 60 1 0 0 0 1 0 0 0 1 3024.dat
1 0 80 0 60 1 0 0 0 1 0 0 0 1 3024.dat
0 STEP
