0 FILE snowflake.ldr
0 Name: Snowflake Ornament
0 Author: Bricky
1 9 40 0 0 1 0 0 0 1 0 0 0 1 3024.dat
1 9 40 0 20 1 0 0 0 1 0 0 0 1 3024.dat
1 9 40 0 40 1 0 0 0 1 0 0 0 1 3024.dat
1 9 40 0 60 1 0 0 0 1 0 0 0 1 3024.dat
1 9 40 0 80 1 0 0 0 1 0 0 0 1 3024.dat
1 9 0 0 40 1 0 0 0 1 0 0 0 1 3024.dat
1 9 20 0 40 1 0 0 0 1 0 0 0 1 3024.dat
1 9 60 0 40 1 0 0 0 1 0 0 0 1 3024.dat
1 9 80 0 40 1 0 0 0 1 0 0 0 1 3024.dat
0 STEP
1 9 0 0 0 1 0 0 0 1 0 0 0 1 3024.dat
1 9 80 0 0 1 0 0 0 1 0 0 0 1 3024.dat
1 9 0 0 80 1 0 0 0 1 0 0 0 1 3024.dat
1 9 80 0 80 1 0 0 0 1 0 0 0 1 3024.dat
1 9 20 0 20 1 0 0 0 1 0 0 0 1 3024.dat
1 9 60 0 20 1 0 0 0 1 0 0 0 1 3024.dat
1 9 20 0 60 1 0 0 0 1 0 0 0 1 3024.dat
1 9 60 0 60 1 0 0 0 1 0 0 0 1 3024.dat
0 STEP
